<svg width="24" height="24" viewBox="0 0 24 24" fill="none" xmlns="http://www.w3.org/2000/svg">
<g clip-path="url(#clip0_1657_1431)">
<path d="M12 23.6484C18.4333 23.6484 23.6484 18.4333 23.6484 12C23.6484 5.56675 18.4333 0.351562 12 0.351562C5.56675 0.351562 0.351562 5.56675 0.351562 12C0.351562 18.4333 5.56675 23.6484 12 23.6484Z" fill="#C6C5CB"/>
<path d="M12 12H22.5425C22.5425 10.5674 22.2563 9.20191 21.7387 7.95673L12 12Z" fill="#FF5023"/>
<path d="M21.7388 7.95676C21.2045 6.67144 20.4238 5.51433 19.4547 4.54529L12 12L21.7388 7.95676Z" fill="#40A559"/>
<path d="M19.4547 4.54531C18.4817 3.57228 17.319 2.78918 16.0273 2.25476L12 12L19.4547 4.54531Z" fill="#FF5023"/>
<path d="M21.7453 16.0273C22.2586 14.7864 22.5426 13.4265 22.5426 12H12L21.7453 16.0273Z" fill="#40A559"/>
<path d="M16.0273 2.25471C14.7864 1.74133 13.4265 1.45746 12 1.45746V12L16.0273 2.25471Z" fill="#40A559"/>
<path d="M12 12L2.25479 7.97272C1.74136 9.21364 1.45749 10.5736 1.45749 12H12Z" fill="#40A559"/>
<path d="M12 1.45746C10.5675 1.45746 9.20194 1.74372 7.95676 2.26127L12 12V1.45746Z" fill="#FF5023"/>
<path d="M12 12V22.5425C13.4325 22.5425 14.7981 22.2563 16.0433 21.7387L12 12Z" fill="#FF5023"/>
<path d="M12 12L4.54529 19.4547C5.51832 20.4277 6.68101 21.2108 7.97269 21.7453L12 12Z" fill="#FF5023"/>
<path d="M12 12L19.4547 19.4547C20.4277 18.4817 21.2108 17.319 21.7453 16.0273L12 12Z" fill="#FF5023"/>
<path d="M12 12L16.0433 21.7388C17.3286 21.2045 18.4857 20.4238 19.4547 19.4547L12 12Z" fill="#40A559"/>
<path d="M12 12L7.97269 21.7452C9.21361 22.2586 10.5735 22.5425 12 22.5425V12Z" fill="#40A559"/>
<path d="M7.95676 2.26123C6.67144 2.79546 5.51433 3.57621 4.54529 4.54526L12 12L7.95676 2.26123Z" fill="#40A559"/>
<path d="M4.54528 4.54529C3.57225 5.51832 2.78915 6.68101 2.25473 7.97269L12 12L4.54528 4.54529Z" fill="#FF5023"/>
<path d="M1.45749 12C1.45749 13.4325 1.74375 14.7981 2.2613 16.0432L12 12H1.45749Z" fill="#FF5023"/>
<path d="M12 12L2.26126 16.0432C2.7955 17.3285 3.57625 18.4856 4.54529 19.4547L12 12Z" fill="#40A559"/>
<path d="M21.3041 12H22.5426C22.5426 10.5674 22.2563 9.20191 21.7388 7.95673L20.5947 8.43171C21.0515 9.5306 21.3041 10.7357 21.3041 12Z" fill="#CD2A01"/>
<path d="M20.5947 8.43174L21.7388 7.95676C21.2045 6.67144 20.4238 5.51433 19.4547 4.54529L18.579 5.42101C19.4342 6.27624 20.1233 7.29737 20.5947 8.43174Z" fill="#378B4F"/>
<path d="M18.579 5.42103L19.4547 4.54531C18.4817 3.57228 17.319 2.78918 16.0273 2.25476L15.5542 3.39954C16.6942 3.8712 17.7202 4.56228 18.579 5.42103Z" fill="#CD2A01"/>
<path d="M21.3041 12C21.3041 13.2589 21.0536 14.4591 20.6005 15.5542L21.7453 16.0273C22.2587 14.7864 22.5426 13.4265 22.5426 12H21.3041Z" fill="#378B4F"/>
<path d="M15.5542 3.39949L16.0273 2.25471C14.7864 1.74133 13.4265 1.45746 12 1.45746V2.6959C13.2589 2.69585 14.4591 2.94644 15.5542 3.39949Z" fill="#378B4F"/>
<path d="M3.39952 8.44577L2.25474 7.97266C1.74136 9.21358 1.45749 10.5735 1.45749 12H2.69593C2.69588 10.7411 2.94647 9.54091 3.39952 8.44577Z" fill="#378B4F"/>
<path d="M12 2.6959V1.45746C10.5675 1.45746 9.20194 1.74372 7.95676 2.26127L8.43174 3.4053C9.53063 2.94855 10.7357 2.6959 12 2.6959Z" fill="#CD2A01"/>
<path d="M12 21.3041V22.5426C13.4325 22.5426 14.7981 22.2563 16.0433 21.7388L15.5683 20.5947C14.4694 21.0515 13.2643 21.3041 12 21.3041Z" fill="#CD2A01"/>
<path d="M5.42101 18.579L4.54529 19.4547C5.51832 20.4277 6.68101 21.2108 7.97269 21.7452L8.4458 20.6005C7.30585 20.1288 6.27976 19.4377 5.42101 18.579Z" fill="#FF5023"/>
<path d="M18.579 18.579L19.4547 19.4547C20.4278 18.4817 21.2109 17.319 21.7453 16.0273L20.6005 15.5542C20.1288 16.6942 19.4378 17.7202 18.579 18.579Z" fill="#CD2A01"/>
<path d="M15.5683 20.5947L16.0433 21.7387C17.3286 21.2045 18.4857 20.4237 19.4547 19.4547L18.579 18.579C17.7238 19.4342 16.7026 20.1232 15.5683 20.5947Z" fill="#378B4F"/>
<path d="M8.4458 20.6005L7.97269 21.7452C9.21361 22.2586 10.5735 22.5425 12 22.5425V21.3041C10.7411 21.3041 9.54094 21.0535 8.4458 20.6005Z" fill="#378B4F"/>
<path d="M8.43174 3.40526L7.95676 2.26123C6.67144 2.79546 5.51433 3.57621 4.54529 4.54526L5.42101 5.42098C6.27624 4.56579 7.29737 3.87673 8.43174 3.40526Z" fill="#378B4F"/>
<path d="M5.421 5.42101L4.54528 4.54529C3.57225 5.51832 2.78915 6.68101 2.25473 7.97269L3.39951 8.4458C3.87117 7.30585 4.56225 6.27976 5.421 5.42101Z" fill="#CD2A01"/>
<path d="M2.69587 12H1.45743C1.45743 13.4325 1.74369 14.7981 2.26124 16.0432L3.40527 15.5683C2.94852 14.4694 2.69587 13.2643 2.69587 12Z" fill="#CD2A01"/>
<path d="M3.40529 15.5682L2.26126 16.0432C2.7955 17.3285 3.57625 18.4856 4.54529 19.4546L5.42101 18.5789C4.56582 17.7237 3.87676 16.7026 3.40529 15.5682Z" fill="#378B4F"/>
<path d="M20.4853 3.51469C18.2188 1.24823 15.2053 0 12 0C8.79469 0 5.78119 1.24823 3.51469 3.51469C1.24819 5.78114 0 8.79469 0 12C0 15.2053 1.24823 18.2188 3.51469 20.4853C5.78114 22.7518 8.79469 24 12 24C15.2053 24 18.2188 22.7518 20.4853 20.4853C22.7518 18.2189 24 15.2053 24 12C24 8.79469 22.7518 5.78119 20.4853 3.51469ZM12 23.2969C5.77087 23.2969 0.703125 18.2291 0.703125 12C0.703125 5.77087 5.77087 0.703125 12 0.703125C18.2291 0.703125 23.2969 5.77087 23.2969 12C23.2969 18.2291 18.2291 23.2969 12 23.2969Z" fill="black"/>
<path d="M22.8879 11.6485C22.8499 10.4438 22.6166 9.26974 22.1925 8.14905L22.1984 8.14662L22.0634 7.82182L21.9285 7.4973L21.9227 7.49969C21.4294 6.41224 20.7667 5.42252 19.9475 4.54971L19.9519 4.5453L19.7033 4.29672L19.4547 4.04815L19.4503 4.05255C18.5731 3.2291 17.578 2.56404 16.4841 2.07007L16.4864 2.06426L16.1617 1.92991L15.8367 1.79547L15.8343 1.80133C14.7185 1.38115 13.5501 1.14996 12.3515 1.11213V1.1059H12H11.6484V1.11213C10.4437 1.1501 9.26971 1.3834 8.14902 1.80747L8.14658 1.80161L7.82179 1.93661L7.49727 2.07152L7.49966 2.07733C6.41221 2.5706 5.42249 3.23327 4.54968 4.05255L4.54527 4.04815L4.29669 4.29672L4.04812 4.5453L4.05252 4.54971C3.22907 5.42688 2.56401 6.42204 2.07004 7.51596L2.06422 7.51357L1.92988 7.83832L1.79544 8.1633L1.8013 8.16574C1.38112 9.28151 1.14993 10.45 1.1121 11.6485H1.10587V12.0001V12.3516H1.1121C1.15007 13.5563 1.38337 14.7303 1.80744 15.851L1.80158 15.8535L1.93658 16.1783L2.07149 16.5028L2.0773 16.5004C2.57057 17.5879 3.23324 18.5776 4.05252 19.4504L4.04812 19.4548L4.29669 19.7034L4.54527 19.9519L4.54968 19.9475C5.42685 20.771 6.42201 21.4361 7.51593 21.93L7.51354 21.9358L7.83829 22.0702L8.16327 22.2046L8.16571 22.1988C9.28148 22.6189 10.4499 22.8501 11.6485 22.8879V22.8941H12H12.3516V22.8879C13.5563 22.8499 14.7303 22.6166 15.851 22.1926L15.8534 22.1984L16.1782 22.0634L16.5028 21.9285L16.5004 21.9227C17.5878 21.4294 18.5775 20.7668 19.4503 19.9475L19.4548 19.9519L19.7033 19.7033L19.9519 19.4547L19.9475 19.4503C20.771 18.5732 21.436 17.578 21.93 16.4841L21.9358 16.4865L22.0701 16.1617L22.2046 15.8367L22.1987 15.8343C22.6189 14.7185 22.8501 13.5501 22.8879 12.3515H22.8942V12V11.6485H22.8879ZM22.185 11.6485H13.7637L16.2503 10.6161L21.5434 8.41854C21.9323 9.45321 22.1476 10.5368 22.185 11.6485ZM13.501 10.9961L19.4505 5.04672C20.2048 5.85372 20.8162 6.76694 21.2736 7.76922L13.501 10.9961ZM18.9533 4.54952L12.9985 10.5043L14.3918 7.13285L16.2156 2.71961C17.2238 3.17763 18.1422 3.79146 18.9533 4.54952ZM15.5659 2.45083L13.46 7.54666L12.3515 10.2289V1.81497C13.4574 1.85224 14.5358 2.06557 15.5659 2.45083ZM11.6484 1.81497V10.2364L10.6161 7.74972L8.41851 2.4566C9.45318 2.06768 10.5368 1.85243 11.6484 1.81497ZM7.76919 2.72646L10.9961 10.499L5.04669 4.54952C5.85369 3.79526 6.76691 3.18377 7.76919 2.72646ZM4.54949 5.04672L10.5043 11.0015L7.13282 9.60822L2.71958 7.78441C3.1776 6.77618 3.79143 5.85785 4.54949 5.04672ZM2.4508 8.43415L7.54663 10.5401L10.2288 11.6485H1.81494C1.85221 10.5426 2.06554 9.46422 2.4508 8.43415ZM1.81494 12.3516H10.2363L7.74969 13.384L2.45657 15.5815C2.06765 14.5468 1.8524 13.4632 1.81494 12.3516ZM10.499 13.0039L4.54949 18.9533C3.79523 18.1463 3.18374 17.2331 2.72643 16.2308L10.499 13.0039ZM5.04669 19.4505L11.0015 13.4957L9.60819 16.8672L7.78438 21.2804C6.77615 20.8224 5.85782 20.2086 5.04669 19.4505ZM8.43412 21.5492L10.54 16.4534L11.6485 13.7712V22.1851C10.5426 22.1478 9.46419 21.9345 8.43412 21.5492ZM12.3516 22.1851V13.7637L13.3839 16.2503L15.5815 21.5434C14.5468 21.9324 13.4632 22.1476 12.3516 22.1851ZM16.2308 21.2736L13.0039 13.5011L18.9533 19.4505C18.1463 20.2048 17.2331 20.8163 16.2308 21.2736ZM19.4505 18.9533L13.4957 12.9986L16.8672 14.3918L21.2804 16.2156C20.8224 17.2239 20.2086 18.1422 19.4505 18.9533ZM21.5492 15.5659L16.4534 13.46L13.7712 12.3515H22.185C22.1478 13.4575 21.9344 14.5358 21.5492 15.5659Z" fill="black"/>
<path d="M16.9847 9.83225L18.1399 5.86011L14.1677 7.01525L15.4193 7.69967L6.19785 16.9212L7.07877 17.8021L16.3003 8.58064L16.9847 9.83225Z" fill="white"/>
<path d="M7.07884 18.2993L5.70071 16.9212L14.8389 7.78298L13.2523 6.91542L18.6561 5.34393L17.0846 10.7478L16.2171 9.1611L7.07884 18.2993ZM6.69503 16.9212L7.07884 17.305L16.3836 8.00015L16.8849 8.91679L17.6236 6.37645L15.0833 7.1152L15.9999 7.61643L6.69503 16.9212Z" fill="black"/>
</g>
<defs>
<clipPath id="clip0_1657_1431">
<rect width="24" height="24" fill="white"/>
</clipPath>
</defs>
</svg>
