<svg width="40" height="40" viewBox="0 0 40 40" fill="none" xmlns="http://www.w3.org/2000/svg">
<g opacity="0.2">
<path d="M6.29163 0.585938V35.7591H9.20428H29.9851V3.43031V0.585938H6.29163Z" fill="#E0E0E2"/>
<path d="M18.1383 0.585938H6.29138V35.7594H18.1383V0.585938Z" fill="#C6C5CB"/>
<path d="M13.2919 14.3131C14.4991 13.1059 16.3001 13.1059 17.5073 14.3131L18.1384 14.9442L18.7695 14.3131C19.9767 13.1059 21.7777 13.1059 22.9849 14.3131C24.1921 15.5203 24.114 17.4775 22.9068 18.6847L18.1385 23.6874L13.3702 18.6847C12.1629 17.4776 12.0848 15.5203 13.2919 14.3131Z" fill="#FF3502"/>
<path d="M18.1614 14.9212L18.7694 14.3131C19.9766 13.1059 21.7776 13.1059 22.9848 14.3131C24.192 15.5203 24.1139 17.4775 22.9067 18.6847L18.1614 23.6633V14.9212Z" fill="#CD2A01"/>
<path d="M29.9851 3.43042V35.7592H9.20428V39.4142H33.7083V3.43042H29.9851Z" fill="#57565C"/>
<path d="M31.921 3.43042V37.5732H9.20428V35.7592H29.9851V3.43042H31.921Z" fill="#3E3D43"/>
<path d="M30.571 2.84438V0H5.70569V36.345H8.61835V40H34.2943V2.84438H30.571ZM6.87756 35.1731V1.17188H29.3991V2.84438V35.1731H8.61835H6.87756ZM33.1224 38.8281H9.79022V36.345H30.571V4.01625H33.1224V38.8281Z" fill="black"/>
<path d="M18.1384 24.5365L12.9507 19.0936C12.2583 18.3986 11.8639 17.4825 11.8399 16.5132C11.8155 15.5208 12.184 14.5923 12.8778 13.8986C13.5723 13.204 14.4679 12.8215 15.3997 12.8215C16.3315 12.8215 17.2272 13.204 17.9217 13.8986L18.1385 14.1153L18.3552 13.8986C19.0497 13.204 19.9453 12.8215 20.8771 12.8215C21.8089 12.8215 22.7046 13.204 23.3992 13.8986C24.8096 15.309 24.7762 17.638 23.3262 19.0936L18.1384 24.5365ZM15.3996 13.9935C14.7809 13.9935 14.1795 14.2541 13.7063 14.7273C12.751 15.6826 12.786 17.2719 13.7844 18.2703L13.7942 18.2803L18.1383 22.8379L22.4923 18.2702C23.4906 17.2718 23.5257 15.6825 22.5704 14.7272C22.0972 14.254 21.4959 13.9934 20.8771 13.9934C20.2583 13.9934 19.6569 14.254 19.1837 14.7272L18.1383 15.7726L17.0929 14.7272C16.6199 14.2541 16.0185 13.9935 15.3996 13.9935Z" fill="black"/>
<path d="M9.32376 1.95532H10.084L11.7666 6.37978H10.8817L10.4703 5.27681H8.92493L8.51985 6.37978H7.63501L9.32376 1.95532ZM10.3145 4.67235L9.70384 2.93376L9.06821 4.67235H10.3145Z" fill="#FF3502"/>
<path d="M27.0011 34.1903H26.2409L24.5583 29.7659H25.4432L25.8545 30.8688H27.3999L27.805 29.7659H28.6899L27.0011 34.1903ZM26.0103 31.4733L26.621 33.2119L27.2566 31.4733H26.0103Z" fill="#FF3502"/>
<path d="M27.834 28.6107H26.6622V4.01636H13.3326V2.84448H27.834V28.6107Z" fill="#77767E"/>
<path d="M22.9441 33.5006H8.44263V7.73438H9.6145V32.3288H22.9441V33.5006Z" fill="#77767E"/>
</g>
</svg>
